<svg width="425" height="148" viewBox="0 0 425 148" fill="none" xmlns="http://www.w3.org/2000/svg">
<path d="M147.164 48L147.764 63.06H146.624C144.864 57.74 143.304 54.12 141.944 52.2C140.584 50.24 138.624 49.26 136.064 49.26H135.344V88.74H140.444V90H118.544V88.74H123.644V49.26H122.864C120.304 49.26 118.324 50.28 116.924 52.32C115.524 54.32 113.984 57.9 112.304 63.06H111.164L111.764 48H147.164ZM169.429 63.12C167.949 63.12 166.649 64.08 165.529 66C164.409 67.92 163.849 70.2 163.849 72.84V88.92H168.109V90H149.389V88.92H152.689V62.52H149.389V61.44H163.849V67.2C164.369 65.16 165.369 63.6 166.849 62.52C168.329 61.4 170.009 60.84 171.889 60.84C173.769 60.84 175.289 61.38 176.449 62.46C177.649 63.5 178.249 65 178.249 66.96C178.249 68.88 177.809 70.36 176.929 71.4C176.049 72.44 174.689 72.96 172.849 72.96C171.049 72.96 169.709 72.36 168.829 71.16C167.989 69.96 167.889 68.3 168.529 66.18H170.689C171.689 64.14 171.269 63.12 169.429 63.12ZM192.618 75.9H194.358V71.28C194.358 67.48 194.138 64.94 193.698 63.66C193.298 62.34 192.498 61.68 191.298 61.68C190.578 61.68 189.918 61.88 189.318 62.28C188.758 62.64 188.478 63.16 188.478 63.84C188.478 64.48 188.598 65.14 188.838 65.82H190.338C190.658 66.66 190.818 67.68 190.818 68.88C190.818 70.04 190.318 71.06 189.318 71.94C188.318 72.78 187.058 73.2 185.538 73.2C182.098 73.2 180.378 71.54 180.378 68.22C180.378 63.3 184.558 60.84 192.918 60.84C197.678 60.84 200.958 61.66 202.758 63.3C204.598 64.9 205.518 67.86 205.518 72.18V84.36C205.518 86.44 206.098 87.48 207.258 87.48C208.618 87.48 209.418 85.42 209.658 81.3L210.558 81.36C210.398 84.88 209.738 87.3 208.578 88.62C207.418 89.94 205.518 90.6 202.878 90.6C198.078 90.6 195.318 89.12 194.598 86.16C194.078 87.68 193.298 88.8 192.258 89.52C191.218 90.24 189.698 90.6 187.698 90.6C181.778 90.6 178.818 88.18 178.818 83.34C178.818 80.5 179.938 78.56 182.178 77.52C184.458 76.44 187.938 75.9 192.618 75.9ZM190.218 83.28C190.218 85.36 190.318 86.7 190.518 87.3C190.758 87.9 191.178 88.2 191.778 88.2C192.418 88.2 192.998 87.7 193.518 86.7C194.078 85.66 194.358 84.24 194.358 82.44V76.86H193.938C191.458 76.86 190.218 78.68 190.218 82.32V83.28ZM227.947 61.92C226.187 61.92 224.927 62.88 224.167 64.8C223.407 66.72 223.027 69.9 223.027 74.34V77.46C223.027 81.42 223.467 84.26 224.347 85.98C225.227 87.7 226.847 88.56 229.207 88.56C231.567 88.56 233.447 87.76 234.847 86.16C236.247 84.56 237.147 82.74 237.547 80.7L238.627 80.82C237.867 84.26 236.467 86.74 234.427 88.26C232.347 89.82 229.487 90.6 225.847 90.6C221.207 90.6 217.647 89.36 215.167 86.88C212.687 84.36 211.447 80.7 211.447 75.9C211.447 71.06 212.847 67.34 215.647 64.74C218.487 62.14 222.427 60.84 227.467 60.84C231.027 60.84 233.747 61.54 235.627 62.94C237.507 64.3 238.447 66.02 238.447 68.1C238.447 70.18 237.987 71.7 237.067 72.66C236.187 73.62 234.947 74.1 233.347 74.1C231.787 74.1 230.527 73.68 229.567 72.84C228.607 72 228.127 70.76 228.127 69.12C228.127 68.4 228.227 67.68 228.427 66.96H230.407C230.687 66.16 230.827 65.44 230.827 64.8C230.827 62.88 229.867 61.92 227.947 61.92ZM259.185 90V88.92H261.945L255.165 75L254.025 75.3V88.92H256.785V90H239.565V88.92H242.865V46.08H239.325V45H254.025V74.1L254.985 73.74L268.485 62.52H262.845V61.44H274.665V62.52H270.465L263.325 68.58L273.705 88.92H275.865V90H259.185ZM290 75.9H291.74V71.28C291.74 67.48 291.52 64.94 291.08 63.66C290.68 62.34 289.88 61.68 288.68 61.68C287.96 61.68 287.3 61.88 286.7 62.28C286.14 62.64 285.86 63.16 285.86 63.84C285.86 64.48 285.98 65.14 286.22 65.82H287.72C288.04 66.66 288.2 67.68 288.2 68.88C288.2 70.04 287.7 71.06 286.7 71.94C285.7 72.78 284.44 73.2 282.92 73.2C279.48 73.2 277.76 71.54 277.76 68.22C277.76 63.3 281.94 60.84 290.3 60.84C295.06 60.84 298.34 61.66 300.14 63.3C301.98 64.9 302.9 67.86 302.9 72.18V84.36C302.9 86.44 303.48 87.48 304.64 87.48C306 87.48 306.8 85.42 307.04 81.3L307.94 81.36C307.78 84.88 307.12 87.3 305.96 88.62C304.8 89.94 302.9 90.6 300.26 90.6C295.46 90.6 292.7 89.12 291.98 86.16C291.46 87.68 290.68 88.8 289.64 89.52C288.6 90.24 287.08 90.6 285.08 90.6C279.16 90.6 276.2 88.18 276.2 83.34C276.2 80.5 277.32 78.56 279.56 77.52C281.84 76.44 285.32 75.9 290 75.9ZM287.6 83.28C287.6 85.36 287.7 86.7 287.9 87.3C288.14 87.9 288.56 88.2 289.16 88.2C289.8 88.2 290.38 87.7 290.9 86.7C291.46 85.66 291.74 84.24 291.74 82.44V76.86H291.32C288.84 76.86 287.6 78.68 287.6 82.32V83.28ZM330.43 73.86C330.43 69.74 330.23 66.98 329.83 65.58C329.43 64.14 328.65 63.42 327.49 63.42C326.33 63.42 325.29 64.14 324.37 65.58C323.45 67.02 322.99 69 322.99 71.52V82.68C322.99 84.4 323.33 85.86 324.01 87.06C324.73 88.26 325.73 88.86 327.01 88.86C328.33 88.86 329.23 87.98 329.71 86.22C330.19 84.46 330.43 81.38 330.43 76.98V73.86ZM322.99 45V66C324.51 62.56 327.11 60.84 330.79 60.84C338.27 60.84 342.01 65.82 342.01 75.78C342.01 80.86 340.97 84.6 338.89 87C336.85 89.4 333.77 90.6 329.65 90.6C327.57 90.6 325.97 90.28 324.85 89.64C323.77 89 323.03 87.94 322.63 86.46L322.21 90H308.53V88.92H311.83V46.08H308.53V45H322.99ZM343.563 45H358.263V88.92H361.623V90H343.803V88.92H347.103V46.08H343.563V45ZM378.568 90.6C373.408 90.6 369.528 89.28 366.928 86.64C364.368 83.96 363.088 80.26 363.088 75.54C363.088 70.78 364.528 67.14 367.408 64.62C370.328 62.1 374.028 60.84 378.508 60.84C387.588 60.84 391.948 65.4 391.588 74.52H374.668V76.86C374.668 80.78 375.168 83.74 376.168 85.74C377.168 87.74 378.908 88.74 381.388 88.74C386.028 88.74 389.068 86.26 390.508 81.3L391.588 81.48C390.828 84.36 389.448 86.6 387.448 88.2C385.488 89.8 382.528 90.6 378.568 90.6ZM374.728 73.32H380.908V70.38C380.908 67.14 380.708 64.94 380.308 63.78C379.948 62.58 379.188 61.98 378.028 61.98C376.908 61.98 376.068 62.62 375.508 63.9C374.988 65.14 374.728 67.3 374.728 70.38V73.32Z" fill="#F7F8FB"/>
<mask id="mask0_12_11" style="mask-type:alpha" maskUnits="userSpaceOnUse" x="17" y="33" width="86" height="71">
<path d="M60.0043 103.491L102.44 33.7408H17.569L60.0043 103.491Z" fill="#121010"/>
</mask>
<g mask="url(#mask0_12_11)">
<rect x="22.3083" y="41.7244" width="73.696" height="9.07648" fill="#5EBBFF"/>
<rect x="39.8563" y="73.4143" width="38.2959" height="9.07648" fill="#5EBBFF"/>
<rect x="31.1889" y="56.9908" width="55.8704" height="9.07648" fill="#5EBBFF"/>
<path d="M58.9986 104.655L71.45 87.3312H46.5471L58.9986 104.655Z" fill="#5EBBFF"/>
</g>
</svg>
